<svg width="394" height="229" viewBox="0 0 394 229" fill="none" xmlns="http://www.w3.org/2000/svg">
<g clip-path="url(#clip0_2576_57646)">
<path d="M152.754 123.407C152.926 123.752 153.443 123.752 153.443 123.407L165.518 92.0129C166.036 90.4604 167.588 89.5979 169.14 89.5979H180.353C182.422 89.5979 184.32 91.3229 184.32 93.3928C184.32 93.9103 184.32 94.2553 184.147 94.7728L156.893 168.083C156.893 168.255 156.031 168.945 155.341 169.463C155.168 169.635 154.823 169.635 154.478 169.635C153.443 169.29 152.409 168.428 152.064 167.393L137.574 132.376C137.057 131.341 135.849 130.824 134.814 131.341C134.469 131.514 133.952 131.859 133.779 132.376L115.495 168.773C115.322 168.945 115.15 169.118 114.977 168.945C114.805 168.945 114.805 168.773 114.805 168.773L86.3433 94.6003C85.6533 92.5303 86.5158 90.2879 88.5857 89.5979C89.1032 89.4254 89.4482 89.2529 89.9657 89.2529H102.213C103.765 89.2529 105.318 90.2879 105.835 91.6679L117.91 123.234C118.082 123.579 118.6 123.579 118.6 123.234L133.779 90.2879C134.297 89.2529 135.504 88.7355 136.539 89.2529C137.057 89.4254 137.402 89.7704 137.574 90.2879L152.754 123.407ZM291.266 59.584C291.094 59.0665 290.231 59.0665 290.059 59.584C289.369 63.0339 287.816 68.2087 285.056 70.9686C282.297 73.7285 277.122 75.2809 273.672 75.9709C273.154 76.1434 273.154 77.0059 273.672 77.1784C277.122 77.8683 282.297 79.4208 285.056 82.1807C288.679 85.8031 289.886 90.8054 290.404 93.7378C290.404 93.9103 291.094 93.9103 291.094 93.7378C291.784 90.6329 293.164 85.1131 296.096 82.1807C298.856 79.4208 304.031 77.8683 307.481 77.1784C307.998 77.0059 307.998 76.1434 307.481 75.9709C304.031 75.2809 298.856 73.7285 296.096 70.9686C293.509 68.2087 291.956 63.0339 291.266 59.584ZM188.632 93.7378C188.632 91.6679 190.357 89.7704 192.6 89.7704H204.329C206.399 89.7704 208.297 91.4954 208.297 93.7378V165.668C208.297 167.738 206.572 169.635 204.329 169.635H192.6C190.53 169.635 188.632 167.91 188.632 165.668V93.7378ZM242.105 110.297C242.278 109.78 242.105 109.09 241.588 108.917C241.415 108.917 241.243 108.745 241.07 108.745H217.956C215.886 108.745 213.989 107.02 213.989 104.777V93.7378C213.989 91.6679 215.714 89.7704 217.956 89.7704H271.602C273.327 89.7704 275.569 91.1504 274.707 92.5303L243.658 150.488C243.313 151.006 243.658 151.696 244.175 151.868C244.348 151.868 244.52 152.041 244.693 152.041H272.982C275.052 152.041 276.949 153.766 276.949 156.008V165.668C276.949 167.738 275.224 169.635 272.982 169.635H216.059C214.161 169.635 213.816 166.875 214.679 165.15L242.105 110.297Z" fill="#325FE8"/>
</g>
<defs>
<clipPath id="clip0_2576_57646">
<rect width="222" height="110.396" fill="white" transform="translate(86.0002 59.2394)"/>
</clipPath>
</defs>
</svg>
